<svg width="528" height="358" viewBox="0 0 528 358" fill="none" xmlns="http://www.w3.org/2000/svg">
<mask id="mask0_2073_1759" style="mask-type:alpha" maskUnits="userSpaceOnUse" x="0" y="0" width="528" height="358">
<rect width="528" height="358" rx="16" fill="url(#paint0_linear_2073_1759)"/>
</mask>
<g mask="url(#mask0_2073_1759)">
<rect width="528" height="358" rx="16" fill="url(#paint1_linear_2073_1759)"/>
<g filter="url(#filter0_d_2073_1759)">
<path d="M-22.6288 135.382C-22.6288 124.513 -13.7786 115.701 -2.86133 115.701H286.808C297.726 115.701 306.576 124.513 306.576 135.382V314.784C306.576 325.654 297.726 334.465 286.808 334.465H-2.86133C-13.7786 334.465 -22.6288 325.654 -22.6288 314.784V135.382Z" fill="#242742"/>
</g>
<g filter="url(#filter1_d_2073_1759)">
<path d="M-10.4648 135.382C-10.4648 130.784 -6.72047 127.056 -2.10162 127.056H286.047C290.666 127.056 294.411 130.784 294.411 135.382V314.784C294.411 319.383 290.666 323.111 286.047 323.111H-2.10162C-6.72046 323.111 -10.4648 319.383 -10.4648 314.784V135.382Z" fill="url(#paint2_linear_2073_1759)"/>
</g>
<mask id="mask1_2073_1759" style="mask-type:alpha" maskUnits="userSpaceOnUse" x="-11" y="127" width="306" height="197">
<path d="M-10.4648 135.382C-10.4648 130.784 -6.72047 127.056 -2.10162 127.056H286.047C290.666 127.056 294.411 130.784 294.411 135.382V314.784C294.411 319.383 290.666 323.111 286.047 323.111H-2.10162C-6.72046 323.111 -10.4648 319.383 -10.4648 314.784V135.382Z" fill="url(#paint3_linear_2073_1759)"/>
</mask>
<g mask="url(#mask1_2073_1759)">
<ellipse cx="286.048" cy="311.756" rx="120.125" ry="119.601" fill="url(#paint4_linear_2073_1759)"/>
<circle cx="119.864" cy="119.864" r="119.864" transform="matrix(-0.708652 -0.705558 0.708652 -0.705558 93.2731 270.041)" fill="url(#paint5_linear_2073_1759)"/>
</g>
<g filter="url(#filter2_d_2073_1759)">
<path d="M221.423 51.3586C221.423 46.7599 225.167 43.032 229.786 43.032H542.265C546.883 43.032 550.628 46.76 550.628 51.3586V224.704C550.628 229.303 546.883 233.031 542.265 233.031H229.786C225.167 233.031 221.423 229.303 221.423 224.704V51.3586Z" fill="url(#paint6_linear_2073_1759)"/>
</g>
<path d="M221.423 51.3586C221.423 46.7599 225.167 43.032 229.786 43.032H278.411C287.247 43.032 294.411 50.1954 294.411 59.032V217.031C294.411 225.868 287.247 233.031 278.411 233.031H229.786C225.167 233.031 221.423 229.303 221.423 224.704V51.3586Z" fill="url(#paint7_linear_2073_1759)"/>
<path d="M232.068 81.259C232.068 79.7958 233.259 78.6096 234.729 78.6096H281.107C282.576 78.6096 283.768 79.7958 283.768 81.259C283.768 82.7222 282.576 83.9084 281.107 83.9084H234.729C233.259 83.9084 232.068 82.7222 232.068 81.259Z" fill="#BABBDB"/>
<path d="M232.068 96.3984C232.068 94.9352 233.259 93.749 234.729 93.749H275.785C277.254 93.749 278.446 94.9352 278.446 96.3984C278.446 97.8616 277.254 99.0478 275.785 99.0478H234.729C233.259 99.0478 232.068 97.8616 232.068 96.3984Z" fill="#BABBDB"/>
<path d="M232.068 111.538C232.068 110.075 233.259 108.888 234.729 108.888H281.107C282.576 108.888 283.768 110.075 283.768 111.538C283.768 113.001 282.576 114.187 281.107 114.187H234.729C233.259 114.187 232.068 113.001 232.068 111.538Z" fill="#BABBDB"/>
<path d="M232.068 126.677C232.068 125.214 233.259 124.028 234.729 124.028H264.38C265.85 124.028 267.041 125.214 267.041 126.677C267.041 128.14 265.85 129.327 264.38 129.327H234.729C233.259 129.327 232.068 128.14 232.068 126.677Z" fill="#BABBDB"/>
<path d="M221.423 51.3586C221.423 46.76 225.167 43.032 229.786 43.032H542.265C546.883 43.032 550.628 46.76 550.628 51.3586V51.3586C550.628 59.7199 543.85 66.498 535.488 66.498H236.563C228.201 66.498 221.423 59.7199 221.423 51.3586V51.3586Z" fill="#242742"/>
<ellipse cx="238.53" cy="54.765" rx="4.94187" ry="4.9203" fill="#FF6155"/>
<ellipse cx="255.257" cy="54.765" rx="4.94187" ry="4.9203" fill="#FF9255"/>
<ellipse cx="271.982" cy="54.765" rx="4.94187" ry="4.9203" fill="#6BD5A8"/>
<path d="M310.377 29.4068C310.377 27.7345 311.739 26.3789 313.418 26.3789H381.844C383.524 26.3789 384.886 27.7345 384.886 29.4068V121.757C384.886 123.429 383.524 124.785 381.844 124.785H313.418C311.739 124.785 310.377 123.429 310.377 121.757V29.4068Z" fill="white"/>
<mask id="mask2_2073_1759" style="mask-type:alpha" maskUnits="userSpaceOnUse" x="310" y="26" width="75" height="99">
<path d="M310.377 29.4068C310.377 27.7345 311.739 26.3789 313.418 26.3789H381.844C383.524 26.3789 384.886 27.7345 384.886 29.4068V121.757C384.886 123.429 383.524 124.785 381.844 124.785H313.418C311.739 124.785 310.377 123.429 310.377 121.757V29.4068Z" fill="white"/>
</mask>
<g mask="url(#mask2_2073_1759)">
<path fill-rule="evenodd" clip-rule="evenodd" d="M392.58 48.2386C393.471 49.1252 393.471 50.563 392.581 51.4502L373.365 70.5944C370.059 73.8878 364.697 73.8878 361.391 70.5944C359.867 69.0761 357.395 69.0761 355.871 70.5944L342.618 83.7974C340.044 86.3617 335.869 86.3617 333.295 83.7974C332.503 83.0081 331.218 83.0081 330.426 83.7974L305.908 108.223C305.018 109.11 303.574 109.11 302.683 108.224C301.792 107.337 301.791 105.899 302.682 105.012L327.199 80.5868C329.773 78.0225 333.948 78.0225 336.522 80.5868C337.314 81.3761 338.599 81.3761 339.392 80.5868L352.644 67.3839C355.95 64.0905 361.312 64.0905 364.618 67.3839C366.142 68.9022 368.614 68.9022 370.138 67.3839L389.354 48.2396C390.245 47.3525 391.689 47.352 392.58 48.2386Z" fill="url(#paint8_linear_2073_1759)"/>
</g>
<path d="M347.63 139.924C347.63 138.252 348.992 136.896 350.672 136.896H441.906C443.586 136.896 444.947 138.252 444.947 139.924V248.928C444.947 250.6 443.586 251.955 441.906 251.955H350.672C348.992 251.955 347.63 250.6 347.63 248.928V139.924Z" fill="white"/>
<path fill-rule="evenodd" clip-rule="evenodd" d="M396.669 218.649C410.316 218.649 421.379 207.634 421.379 194.047C421.379 180.46 410.316 169.446 396.669 169.446C383.023 169.446 371.96 180.46 371.96 194.047C371.96 207.634 383.023 218.649 396.669 218.649ZM396.669 229.246C416.194 229.246 432.023 213.487 432.023 194.047C432.023 174.607 416.194 158.848 396.669 158.848C377.144 158.848 361.316 174.607 361.316 194.047C361.316 213.487 377.144 229.246 396.669 229.246Z" fill="url(#paint9_linear_2073_1759)"/>
<path d="M383.828 190.428C383.828 192.147 384.275 193.507 385.17 194.509C386.065 195.502 387.284 195.999 388.829 195.999C390.262 195.999 391.383 195.49 392.191 194.473C392.925 193.557 393.329 192.436 393.402 191.11C393.416 190.864 393.215 190.665 392.969 190.665V190.665C392.723 190.665 392.527 190.865 392.501 191.109C392.43 191.771 392.196 192.313 391.799 192.734C391.316 193.247 390.714 193.503 389.993 193.503C389.225 193.503 388.655 193.247 388.282 192.734C387.91 192.214 387.724 191.453 387.724 190.452C387.724 189.308 387.91 188.488 388.282 187.992C388.662 187.487 389.225 187.235 389.969 187.235C390.769 187.235 391.391 187.562 391.834 188.216C392.256 188.839 392.477 189.929 392.498 191.486C392.5 191.647 392.517 191.808 392.553 191.966V191.966C392.589 192.123 392.607 192.284 392.605 192.445C392.57 194.817 392.02 196.51 390.955 197.525C389.854 198.573 388.298 199.094 386.287 199.086V199.086C385.991 199.086 385.752 199.325 385.752 199.62V201.472C385.752 201.814 386.029 202.09 386.37 202.09V202.09C389.601 202.059 392.068 201.187 393.771 199.476C395.481 197.757 396.337 195.443 396.337 192.533V191.918C396.337 189.3 395.747 187.408 394.567 186.241C393.387 185.066 391.862 184.479 389.993 184.479C388.116 184.479 386.619 185.019 385.503 186.099C384.386 187.179 383.828 188.622 383.828 190.428Z" fill="#242742"/>
<path d="M404.593 200.16C404.593 201.174 405.415 201.995 406.428 201.995V201.995C407.442 201.995 408.264 201.174 408.264 200.16V187.03C408.264 185.784 407.254 184.774 406.008 184.774V184.774C405.27 184.774 404.579 185.135 404.157 185.74L397.5 195.287C397.269 195.62 397.144 196.015 397.144 196.42V196.42C397.144 197.513 398.031 198.4 399.124 198.4H408.704C409.517 198.4 410.176 197.741 410.176 196.927V196.927C410.176 196.114 409.517 195.455 408.704 195.455H406.422L405.805 195.514V195.514C403.668 195.514 402.377 193.152 403.53 191.354L404.511 189.825C404.525 189.803 404.549 189.789 404.575 189.789V189.789C404.618 189.789 404.652 189.824 404.652 189.866V196.842C404.652 196.982 404.642 197.121 404.623 197.259V197.259C404.603 197.396 404.593 197.535 404.593 197.675V200.16Z" fill="#242742"/>
</g>
<defs>
<filter id="filter0_d_2073_1759" x="-54.6288" y="107.701" width="393.205" height="282.764" filterUnits="userSpaceOnUse" color-interpolation-filters="sRGB">
<feFlood flood-opacity="0" result="BackgroundImageFix"/>
<feColorMatrix in="SourceAlpha" type="matrix" values="0 0 0 0 0 0 0 0 0 0 0 0 0 0 0 0 0 0 127 0" result="hardAlpha"/>
<feOffset dy="24"/>
<feGaussianBlur stdDeviation="16"/>
<feComposite in2="hardAlpha" operator="out"/>
<feColorMatrix type="matrix" values="0 0 0 0 0 0 0 0 0 0 0 0 0 0 0 0 0 0 0.1 0"/>
<feBlend mode="normal" in2="BackgroundImageFix" result="effect1_dropShadow_2073_1759"/>
<feBlend mode="normal" in="SourceGraphic" in2="effect1_dropShadow_2073_1759" result="shape"/>
</filter>
<filter id="filter1_d_2073_1759" x="-42.4648" y="119.056" width="368.875" height="260.055" filterUnits="userSpaceOnUse" color-interpolation-filters="sRGB">
<feFlood flood-opacity="0" result="BackgroundImageFix"/>
<feColorMatrix in="SourceAlpha" type="matrix" values="0 0 0 0 0 0 0 0 0 0 0 0 0 0 0 0 0 0 127 0" result="hardAlpha"/>
<feOffset dy="24"/>
<feGaussianBlur stdDeviation="16"/>
<feComposite in2="hardAlpha" operator="out"/>
<feColorMatrix type="matrix" values="0 0 0 0 0 0 0 0 0 0 0 0 0 0 0 0 0 0 0.1 0"/>
<feBlend mode="normal" in2="BackgroundImageFix" result="effect1_dropShadow_2073_1759"/>
<feBlend mode="normal" in="SourceGraphic" in2="effect1_dropShadow_2073_1759" result="shape"/>
</filter>
<filter id="filter2_d_2073_1759" x="189.423" y="35.032" width="393.205" height="253.999" filterUnits="userSpaceOnUse" color-interpolation-filters="sRGB">
<feFlood flood-opacity="0" result="BackgroundImageFix"/>
<feColorMatrix in="SourceAlpha" type="matrix" values="0 0 0 0 0 0 0 0 0 0 0 0 0 0 0 0 0 0 127 0" result="hardAlpha"/>
<feOffset dy="24"/>
<feGaussianBlur stdDeviation="16"/>
<feComposite in2="hardAlpha" operator="out"/>
<feColorMatrix type="matrix" values="0 0 0 0 0 0 0 0 0 0 0 0 0 0 0 0 0 0 0.1 0"/>
<feBlend mode="normal" in2="BackgroundImageFix" result="effect1_dropShadow_2073_1759"/>
<feBlend mode="normal" in="SourceGraphic" in2="effect1_dropShadow_2073_1759" result="shape"/>
</filter>
<linearGradient id="paint0_linear_2073_1759" x1="528" y1="-1.9418e-05" x2="381.269" y2="475.623" gradientUnits="userSpaceOnUse">
<stop stop-color="#FF6A3A"/>
<stop offset="1" stop-color="#FF527B"/>
</linearGradient>
<linearGradient id="paint1_linear_2073_1759" x1="0" y1="179" x2="528" y2="179" gradientUnits="userSpaceOnUse">
<stop stop-color="#FF6A3A"/>
<stop offset="1" stop-color="#FF527B"/>
</linearGradient>
<linearGradient id="paint2_linear_2073_1759" x1="-10.4648" y1="225.083" x2="294.411" y2="225.083" gradientUnits="userSpaceOnUse">
<stop stop-color="#FF3E83"/>
<stop offset="1" stop-color="#FF9F2E"/>
</linearGradient>
<linearGradient id="paint3_linear_2073_1759" x1="57.581" y1="124.028" x2="290.885" y2="324.119" gradientUnits="userSpaceOnUse">
<stop stop-color="#FF3E83"/>
<stop offset="1" stop-color="#FF9F2E"/>
</linearGradient>
<linearGradient id="paint4_linear_2073_1759" x1="165.922" y1="311.756" x2="406.173" y2="311.756" gradientUnits="userSpaceOnUse">
<stop stop-color="#FFB433"/>
<stop offset="1" stop-color="#FF5B64" stop-opacity="0"/>
</linearGradient>
<linearGradient id="paint5_linear_2073_1759" x1="0" y1="119.864" x2="239.727" y2="119.864" gradientUnits="userSpaceOnUse">
<stop stop-color="#FFB433"/>
<stop offset="1" stop-color="#FF5B64" stop-opacity="0"/>
</linearGradient>
<linearGradient id="paint6_linear_2073_1759" x1="221.423" y1="138.032" x2="550.628" y2="138.032" gradientUnits="userSpaceOnUse">
<stop stop-color="#F8F8F8"/>
<stop offset="1" stop-color="#EEEEEE"/>
</linearGradient>
<linearGradient id="paint7_linear_2073_1759" x1="221.423" y1="138.032" x2="294.411" y2="138.032" gradientUnits="userSpaceOnUse">
<stop stop-color="#CACBE8"/>
<stop offset="1" stop-color="#EEEEEE"/>
</linearGradient>
<linearGradient id="paint8_linear_2073_1759" x1="302.014" y1="78.2312" x2="393.249" y2="78.2312" gradientUnits="userSpaceOnUse">
<stop stop-color="#FF9649"/>
<stop offset="1" stop-color="#FF5E5E"/>
</linearGradient>
<linearGradient id="paint9_linear_2073_1759" x1="361.316" y1="194.047" x2="432.023" y2="194.047" gradientUnits="userSpaceOnUse">
<stop stop-color="#FF6A3D"/>
<stop offset="1" stop-color="#FF5B66"/>
</linearGradient>
</defs>
</svg>
